<?xml version="1.0" standalone="no"?><!DOCTYPE svg PUBLIC "-//W3C//DTD SVG 1.1//EN" "http://www.w3.org/Graphics/SVG/1.1/DTD/svg11.dtd"><svg t="1591085063134" class="icon" viewBox="0 0 1543 1024" version="1.1" xmlns="http://www.w3.org/2000/svg" p-id="2292" xmlns:xlink="http://www.w3.org/1999/xlink" width="301.3671875" height="200"><defs><style type="text/css"></style></defs><path d="M8.795092 1016.46135h1519.038037V6.282209H8.795092v1010.179141z m1521.55092 3.769325v-3.769325 3.769325zM2.512883 1024V0h1531.602454V1022.743558H2.512883z" fill="#353636" p-id="2293"></path><path d="M6.282209 680.991411h1525.320245v339.239264H6.282209z" fill="#009842" p-id="2294"></path><path d="M6.282209 343.008589h1525.320245v339.239264H6.282209z" fill="#FFFFFF" p-id="2295"></path><path d="M6.282209 3.769325h1525.320245v339.239264H6.282209z" fill="#F2AB48" p-id="2296"></path><path d="M887.299141 459.94562l4.397546-7.626602 7.614037 4.384982-4.384982 7.626601zM903.381595 500.063804l-6.282208-7.538651 6.282208-6.282208 6.282209 6.282208zM902.125153 535.244172l-5.025766-8.795092 8.795092-3.769325 3.769325 7.53865zM888.681227 560.586601l8.518675-2.236466 2.236466 8.50611-8.50611 2.236467z" fill="#22297B" p-id="2297"></path><path d="M887.299141 459.94562l4.397546-7.626602 7.614037 4.384982-4.384982 7.626601zM903.381595 500.063804l-6.282208-7.538651 6.282208-6.282208 6.282209 6.282208zM902.125153 535.244172l-5.025766-8.795092 8.795092-3.769325 3.769325 7.53865zM888.681227 560.586601l8.518675-2.236466 2.236466 8.50611-8.50611 2.236467zM742.908859 376.29173l6.206822-6.231951 6.231951 6.206822-6.206822 6.231951zM778.591804 374.89708l7.614036-4.397546 4.397547 7.614037-7.614037 4.397546zM825.482209 388.240491l-8.795092 2.512883-2.512884-8.795092 8.795092-2.512883zM845.585276 398.292025h8.795092v8.795092h-8.795092zM879.509202 433.472393l-8.795092-2.512884 2.512884-8.795092 8.795092 2.512884zM873.226994 589.271166h8.795092v8.795092h-8.795092zM847.319166 622.566871l2.223901-8.493546 8.518675 2.223902-2.236466 8.50611zM815.430675 639.528834l3.769325-7.53865 8.795092 3.769325-5.025767 7.538651zM780.250307 647.067485l6.282208-6.282209 7.538651 6.282209-7.538651 6.282208zM745.069939 645.811043l7.53865-5.025767 5.025767 8.795092-7.53865 3.769325zM711.146012 635.759509l8.795092-2.512883 2.512884 8.795092-8.795092 2.512883zM680.991411 615.656442h8.795092v8.795092h-8.795092zM655.397693 599.322699l2.286724-8.480981 8.493546 2.261595-2.274159 8.50611zM636.236957 566.315975l4.397546-7.614036 7.614037 4.41011-4.397546 7.614037zM633.246626 523.936196l6.282208 6.282209-6.282208 7.53865-6.282209-7.53865zM634.503067 488.755828l5.025767 7.538651-8.795092 5.025766-3.769325-7.53865zM635.998233 457.407607l8.493546-2.286724 2.286724 8.493546-8.493546 2.286724zM654.593571 424.702429l8.795092-0.037693 0.037693 8.795092-8.795092 0.037693zM689.786503 400.804908l-2.512883 8.795092-8.795092-2.512883 2.512883-8.795092zM708.809031 388.416393l4.397546-7.614037 7.614036 4.397546-4.397546 7.614037zM765.173006 511.371779l3.769325-54.026994-3.769325-81.668711-3.769325 81.668711zM765.173006 511.371779l17.590184-51.51411 17.590184-79.155829-25.128834 77.899387zM765.173006 511.371779l30.154601-45.231902 37.693252-71.617178-43.97546 67.847853zM765.173006 511.371779l41.462577-35.180368 54.026994-60.309202-60.309203 54.026993zM765.173006 511.371779l49.001227-23.872392 67.847853-43.975461-71.617178 37.693252zM765.173006 511.371779l54.026994-10.051534 76.642945-25.128834-79.155828 17.590184zM765.173006 511.371779l54.026994 3.769325 81.668712-3.769325-81.668712-3.769325zM765.173006 511.371779l51.514111 17.590184 79.155828 17.590184-76.642945-25.128834zM765.173006 511.371779l45.231902 30.154601 72.87362 37.693252-69.104295-43.97546zM765.173006 511.371779l35.180368 41.462577 61.565644 54.026994-55.283435-60.309203zM765.173006 511.371779l23.872393 49.001227 43.97546 67.847853-36.43681-71.617178zM765.173006 511.371779l10.051534 52.770552 25.128834 77.899387-17.590184-79.155828zM765.173006 511.371779l-3.769325 54.026994 3.769325 81.668712 3.769325-81.668712zM765.173006 511.371779l-17.590184 51.514111-16.333742 79.155828 23.872392-76.642945zM765.173006 511.371779l-30.154601 45.231902-36.43681 72.87362 43.97546-69.104295zM765.173006 511.371779l-40.206135 35.180368-55.283435 61.565644 60.309202-55.283435zM765.173006 511.371779L716.171779 535.244172l-67.847853 43.97546 72.87362-36.43681zM765.173006 511.371779l-52.770552 10.051534-77.899387 25.128834 79.155829-17.590184zM765.173006 511.371779l-54.026994-3.769325-81.668711 3.769325 81.668711 3.769325zM765.173006 511.371779l-51.51411-17.590184-79.155829-16.333742 77.899387 23.872392zM765.173006 511.371779l-45.231902-30.154601-71.617178-36.43681 67.847853 42.719019zM765.173006 511.371779l-35.180368-40.206135-60.309202-55.283435 54.026993 60.309202zM765.173006 511.371779L741.300613 462.370552 697.325153 394.522699l37.693252 72.87362zM765.173006 511.371779l-10.051534-52.770552-25.128834-77.899387 17.590184 79.155829z" fill="#22297B" p-id="2298"></path><path d="M732.505521 643.29816c-72.87362-20.103067-115.592638-94.233129-96.746012-167.106749 20.103067-72.87362 94.233129-115.592638 167.106749-96.746012 72.87362 20.103067 115.592638 94.233129 96.746012 167.106748-18.846626 72.87362-94.233129 116.84908-167.106749 96.746013z m75.386504-280.186504c-81.668712-22.615951-165.850307 26.385276-188.466258 108.053988-21.359509 81.668712 26.385276 165.850307 109.310429 188.466258 81.668712 21.359509 165.850307-26.385276 188.466258-109.31043 21.359509-80.41227-27.641718-164.593865-109.310429-187.209816z" fill="#22297B" p-id="2299"></path><path d="M794.071166 518.910429c-3.769325 15.077301-18.846626 23.872393-33.923927 18.846626-15.077301-3.769325-23.872393-18.846626-18.846626-33.923926 3.769325-15.077301 18.846626-23.872393 33.923927-18.846626 15.077301 5.025767 23.872393 18.846626 18.846626 33.923926zM825.482209 388.240491l-8.795092 2.512883-2.512884-8.795092 8.795092-2.512883zM845.585276 398.292025h8.795092v8.795092h-8.795092zM879.509202 433.472393l-8.795092-2.512884 2.512884-8.795092 8.795092 2.512884zM873.226994 589.271166h8.795092v8.795092h-8.795092zM847.319166 622.566871l2.223901-8.493546 8.518675 2.223902-2.236466 8.50611zM815.430675 639.528834l3.769325-7.53865 8.795092 3.769325-5.025767 7.538651zM780.250307 647.067485l6.282208-6.282209 7.538651 6.282209-7.538651 6.282208zM745.069939 645.811043l7.53865-5.025767 5.025767 8.795092-7.53865 3.769325zM711.146012 635.759509l8.795092-2.512883 2.512884 8.795092-8.795092 2.512883zM680.991411 615.656442h8.795092v8.795092h-8.795092zM655.397693 599.322699l2.286724-8.480981 8.493546 2.261595-2.274159 8.50611zM636.236957 566.315975l4.397546-7.614036 7.614037 4.41011-4.397546 7.614037zM633.246626 523.936196l6.282208 6.282209-6.282208 7.53865-6.282209-7.53865zM634.503067 488.755828l5.025767 7.538651-8.795092 5.025766-3.769325-7.53865zM635.998233 457.407607l8.493546-2.286724 2.286724 8.493546-8.493546 2.286724zM654.593571 424.702429l8.795092-0.037693 0.037693 8.795092-8.795092 0.037693zM689.786503 400.804908l-2.512883 8.795092-8.795092-2.512883 2.512883-8.795092zM708.809031 388.416393l4.397546-7.614037 7.614036 4.397546-4.397546 7.614037zM742.908859 376.29173l6.206822-6.231951 6.231951 6.206822-6.206822 6.231951z" fill="#22297B" p-id="2300"></path></svg>